# xmcd
#
# Track frame offsets:
#	150
#	19095
#	38692
#	56043
#	72771
#	91461
#	106612
#	130587
#	149685
#	172987
#	187462
#	204270
#
# Disc length: 2962 seconds
#
# Revision: 1
# Processed by: cddbd v1.4PL0 Copyright (c) Steve Scherf et al.
# Submitted via: audiograbber 1.81.01
#
DISCID=a50b900c
DTITLE=Hosea Leavy - You Gotta Move
DYEAR=1998
DGENRE=Blues
TTITLE0=You Gotta Move
TTITLE1=Hey Boss!
TTITLE2=Fannie Mae
TTITLE3=Tryin' To Get Ahead
TTITLE4=Goin' Back To The Country
TTITLE5=Tore  Down
TTITLE6=If You Love Me Like You Say
TTITLE7=Born In Missouri
TTITLE8=Going Blind
TTITLE9=Reconsider Baby
TTITLE10=When You Get Old
TTITLE11=Crazy Mary
EXTD=
EXTT0=
EXTT1=
EXTT2=
EXTT3=
EXTT4=
EXTT5=
EXTT6=
EXTT7=
EXTT8=
EXTT9=
EXTT10=
EXTT11=
PLAYORDER=
